<?xml version="1.0" encoding="utf-8"?>
<!-- Generator: Adobe Illustrator 21.1.0, SVG Export Plug-In . SVG Version: 6.00 Build 0)  -->
<svg version="1.1" id="Layer_1" xmlns="http://www.w3.org/2000/svg" xmlns:xlink="http://www.w3.org/1999/xlink" x="0px" y="0px"
	 viewBox="0 0 805.4 94" style="enable-background:new 0 0 805.4 94;" xml:space="preserve">
<style type="text/css">
	.st0{fill:#FFFFFF;}
</style>
<g>
	<polygon class="st0" points="724.9,40.6 724.9,20.2 713.3,36.7 694,30.4 706.1,47 694.2,63.5 713.3,57.2 724.9,73.8 724.9,53.3 
		744.4,47 	"/>
	<polygon class="st0" points="762.6,0 725.9,0 768.7,47 725.9,94 762.6,94 805.4,47 	"/>
	<path class="st0" d="M41.6,27.5c5.8,0,11.5,2.8,15.3,7.5l1.4,1.7l17.9-12.3l-1.6-2c-7.9-9.9-20-15.6-33-15.6
		C18.7,6.8,0,24.7,0,46.7s18.7,39.8,41.6,39.8c12.9,0,24.9-5.6,32.8-15.3l1.6-2L58.2,56.8l-1.4,1.7c-3.9,4.7-9.4,7.4-15.2,7.4
		C31,65.9,22,57.1,22,46.7C22,36.3,31,27.5,41.6,27.5z"/>
	<polygon class="st0" points="233.9,51.4 201.5,9 180.9,9 180.9,84 200.9,84 200.9,42 231.1,84 253.9,84 253.9,9 233.9,9 	"/>
	<path class="st0" d="M310.9,62.4v-0.1c0,0.7-0.8,0.8-1.2,0.8c-0.3,0-0.9-0.1-1.2-0.8L291.9,9h-23l24.5,75h32.7l24.5-75h-23
		L310.9,62.4z"/>
	<path class="st0" d="M497.1,53.4c8-4.6,12.6-13,11.9-22.2C508.1,18.7,497.2,9,484.2,9h-38.3v75h20V57h9c0.9,0,1.7,0.1,2.3,0.9
		L490.1,84h22.5L497.1,53.4z M483.6,37h-17.6v-8h17.6c2.4,0,4.4,1.6,4.4,4C488,35.4,486,37,483.6,37z"/>
	<polygon class="st0" points="607.9,84 667.9,84 667.9,64 627.9,64 627.9,55 663.9,55 663.9,37 627.9,37 627.9,29 667.9,29 667.9,9 
		607.9,9 	"/>
	<path class="st0" d="M562.7,37.3c-10.7-2.4-13.8-4-13.8-7.5v-0.2c0-2.8,2.1-5,7.3-5c6.9,0,12.5,2.2,20,6.7l12-14.2
		c-8.4-6.7-18.5-10.3-31.6-10.3c-18.6,0-29.7,10.4-29.7,24.8v0.2c0,15.9,13.1,20.6,29.6,24.3c10.5,2.4,13.4,4.2,13.4,7.4v0.2
		c0,3.3-3.7,5.3-9.5,5.3c-9,0-17.8-3.2-25.4-9.3L522.9,74c9.5,8.5,23.3,12.8,37,12.8c18.8,0,32-9.4,32-25.2v-0.2
		C591.9,46.9,580.5,41.2,562.7,37.3z"/>
	<path class="st0" d="M124.8,6.9c-22.4,0-40.6,17.9-40.6,39.8c0,22,18.2,39.8,40.6,39.8c22.4,0,40.6-17.9,40.6-39.8
		C165.4,24.7,147.2,6.9,124.8,6.9z M124.8,65.7c-10.5,0-19-8.5-19-19s8.5-19,19-19c10.5,0,19,8.5,19,19S135.3,65.7,124.8,65.7z"/>
	<polygon class="st0" points="364.9,84 424.9,84 424.9,64 384.9,64 384.9,55 420.9,55 420.9,37 384.9,37 384.9,29 424.9,29 424.9,9 
		364.9,9 	"/>
</g>
</svg>
